# xmcd CD database file
#
# Track frame offsets:
#	150
#	12325
#	22765
#	48360
#	57453
#	66684
#	84298
#	99748
#	111806
#	121089
#	133028
#	137856
#	144914
#	162414
#	171918
#	181155
#	193625
#	201562
#	211509
#	221196
#	250781
#	269388
#	283674
#	294348
#
# Disc length: 4111 seconds
#
# Revision: 2
# Processed by: cddbd v1.5.2PL0 Copyright (c) Steve Scherf et al.
# Submitted via: CDex 1.51
#
DISCID=6c100d18
DTITLE=Various Artist - Greetings from London  (Oman Consort)
DYEAR=2007
DGENRE=Classique
TTITLE0=Nicola Matteis - Gavotta con divisioni
TTITLE1=Nicola Matteis - Adagio-Presto
TTITLE2=Andrea Falconiero - Report upon 'Canciona dicha la preciosa, echa para Don Enrico Butler'
TTITLE3=Andrea Falconiero - 'Su Gallarda'
TTITLE4=Nicola Matteis - Aria tra la maniera Francese, è la Spagnola
TTITLE5=Nicola Matteis - Diverse bizzarrie sopra la Vecchia Sarabanda ò pur Ciaccona
TTITLE6=John Hilton - Fantazia 5
TTITLE7=John Hilton - Fantazia 1
TTITLE8=John Hilton - Fantazia 2
TTITLE9=Nicola Matteis - Contr'aria
TTITLE10=John Hilton - Fancy
TTITLE11=Nicola Matteis - Scaramuccia
TTITLE12=Nicola Matteis - Aria burlesca con molto bizzarrie
TTITLE13=Nicola Matteis - Gavotta
TTITLE14=Georg Friedrich Händel - 'Prelude e Capriccio' in G HWV 571 - Prelude
TTITLE15=Georg Friedrich Händel - 'Prelude e Capriccio' in G HWV 571 - Capriccio
TTITLE16=John Hilton - Preludio
TTITLE17=John Hilton - Fantasia a 3
TTITLE18=John Hilton - Fantazia 3
TTITLE19=Henry Purcell - The Plaint
TTITLE20=Nicola Matteis - Aria Amorosa
TTITLE21=Nicola Matteis - Ground in D la sol re per far la mano
TTITLE22=Nicola Matteis - Grave
TTITLE23=Nicola Matteis - Ground after the Scotch humour
EXTD=YEAR: 2007
EXTT0=
EXTT1=
EXTT2=
EXTT3=
EXTT4=
EXTT5=
EXTT6=
EXTT7=
EXTT8=
EXTT9=
EXTT10=
EXTT11=
EXTT12=
EXTT13=
EXTT14=
EXTT15=
EXTT16=
EXTT17=
EXTT18=
EXTT19=
EXTT20=
EXTT21=
EXTT22=
EXTT23=
PLAYORDER=
